<svg width="3840" height="2160" viewBox="0 0 3840 2160" xmlns="http://www.w3.org/2000/svg">
  <defs>
    <linearGradient id="desk-base" x1="0" y1="0" x2="1" y2="0">
      <stop offset="0%" stop-color="#2a1c12"/>
      <stop offset="45%" stop-color="#3a2616"/>
      <stop offset="100%" stop-color="#1c120b"/>
    </linearGradient>
    <filter id="desk-noise" x="0" y="0" width="100%" height="100%">
      <feTurbulence type="fractalNoise" baseFrequency="0.65" numOctaves="3" seed="6" result="noise"/>
      <feColorMatrix type="saturate" values="0.35"/>
      <feBlend in="SourceGraphic" in2="noise" mode="multiply"/>
    </filter>
  </defs>
  <rect width="3840" height="2160" fill="url(#desk-base)"/>
  <g stroke="rgba(255,255,255,0.05)" stroke-width="8">
    <path d="M-100 320 C400 280 900 360 1400 320 S2400 360 2900 320 3600 360 4100 320"/>
    <path d="M-100 640 C500 600 1100 720 1700 680 S2700 740 3300 700 4000 760 4200 720"/>
    <path d="M-100 980 C520 960 1200 1100 1900 1040 S2900 1120 3500 1080 4100 1160 4300 1120"/>
    <path d="M-100 1320 C520 1320 1300 1400 2000 1360 S3000 1460 3600 1420 4200 1520 4400 1480"/>
    <path d="M-100 1660 C520 1700 1300 1760 2100 1720 S3100 1840 3700 1800 4300 1920 4500 1880"/>
  </g>
  <rect width="3840" height="2160" fill="rgba(0,0,0,0.2)" filter="url(#desk-noise)"/>
</svg>
